<?xml version="1.0" encoding="UTF-8" standalone="no"?>
<!DOCTYPE svg PUBLIC "-//W3C//DTD SVG 1.1//EN" "http://www.w3.org/Graphics/SVG/1.1/DTD/svg11.dtd">
<svg width="100%" height="100%" viewBox="0 0 167 165" version="1.1" xmlns="http://www.w3.org/2000/svg" xmlns:xlink="http://www.w3.org/1999/xlink" xml:space="preserve" xmlns:serif="http://www.serif.com/" style="fill-rule:evenodd;clip-rule:evenodd;stroke-linejoin:round;stroke-miterlimit:2;">
    <g id="_-Rounded-Rectangle-" serif:id="(Rounded Rectangle)" transform="matrix(-0.253823,0.000135706,-0.000224252,-0.419437,182.373,239.909)">
        <path d="M718,376.5C718,268.601 573.242,181 394.94,181L387.06,181C208.758,181 64,268.601 64,376.5C64,484.399 208.758,572 387.06,572L394.94,572C573.242,572 718,484.399 718,376.5Z" style="fill:#000;"/>
    </g>
    <g id="Vector-Stripes" serif:id="Vector Stripes">
        <clipPath id="_clip1">
            <path d="M0.044,82.089C0.068,127.346 36.831,164.069 82.088,164.045L84.088,164.044C129.345,164.02 166.068,127.257 166.044,82C166.02,36.743 129.257,0.02 84,0.044L82,0.045C36.743,0.069 0.02,36.832 0.044,82.089Z"/>
        </clipPath>
        <g clip-path="url(#_clip1)">
            <g transform="matrix(1.66192,0,0,1.09595,-64.1473,-0.854442)">
                <path d="M164.769,28.235C164.769,23.715 162.348,20.044 159.367,20.044L81.096,20.044C78.115,20.044 75.694,23.715 75.694,28.235C75.694,32.756 78.115,36.426 81.096,36.426L159.367,36.426C162.348,36.426 164.769,32.756 164.769,28.235Z" style="fill:rgb(210,5,0);"/>
            </g>
            <g transform="matrix(1.67274,0,0,1.09595,-85.9621,25.1227)">
                <path d="M164.769,28.235C164.769,23.715 162.364,20.044 159.402,20.044L81.061,20.044C78.099,20.044 75.694,23.715 75.694,28.235C75.694,32.756 78.099,36.426 81.061,36.426L159.402,36.426C162.364,36.426 164.769,32.756 164.769,28.235Z" style="fill:rgb(255,102,7);"/>
            </g>
            <g transform="matrix(2.11788,0,0,1.09595,-140.653,51.0998)">
                <path d="M164.769,28.235C164.769,23.715 162.869,20.044 160.53,20.044L79.933,20.044C77.594,20.044 75.694,23.715 75.694,28.235C75.694,32.756 77.594,36.426 79.933,36.426L160.53,36.426C162.869,36.426 164.769,32.756 164.769,28.235Z" style="fill:rgb(255,239,7);"/>
            </g>
            <g transform="matrix(2.1061,0,0,1.09595,-118.765,77.0769)">
                <path d="M164.769,28.235C164.769,23.715 162.859,20.044 160.506,20.044L79.957,20.044C77.604,20.044 75.694,23.715 75.694,28.235C75.694,32.756 77.604,36.426 79.957,36.426L160.506,36.426C162.859,36.426 164.769,32.756 164.769,28.235Z" style="fill:rgb(131,204,0);"/>
            </g>
            <g transform="matrix(2.09528,0,0,1.09595,-96.9506,103.054)">
                <path d="M164.769,28.235C164.769,23.715 162.849,20.044 160.484,20.044L79.979,20.044C77.614,20.044 75.694,23.715 75.694,28.235C75.694,32.756 77.614,36.426 79.979,36.426L160.484,36.426C162.849,36.426 164.769,32.756 164.769,28.235Z" style="fill:rgb(52,124,255);"/>
            </g>
        </g>
    </g>
</svg>
