<?xml version="1.0" encoding="UTF-8" standalone="no"?>
<!DOCTYPE svg PUBLIC "-//W3C//DTD SVG 1.1//EN" "http://www.w3.org/Graphics/SVG/1.1/DTD/svg11.dtd">
<svg width="100%" height="100%" viewBox="0 0 437 418" version="1.1" xmlns="http://www.w3.org/2000/svg" xmlns:xlink="http://www.w3.org/1999/xlink" xml:space="preserve" xmlns:serif="http://www.serif.com/" style="fill-rule:evenodd;clip-rule:evenodd;stroke-linecap:round;stroke-linejoin:round;stroke-miterlimit:1.5;">
    <g transform="matrix(1,0,0,1,-162,0)">
        <g transform="matrix(2,0,0,2,-3601.57,-1554.92)">
            <circle cx="1995.48" cy="881.754" r="99.915" style="fill:url(#_Linear1);"/>
            <path d="M1995.48,777.672C2052.92,777.672 2099.56,824.309 2099.56,881.754C2099.56,939.198 2052.92,985.836 1995.48,985.836C1938.04,985.836 1891.4,939.198 1891.4,881.754C1891.4,824.309 1938.04,777.672 1995.48,777.672ZM1995.48,781.838C1940.34,781.838 1895.57,826.609 1895.57,881.754C1895.57,936.898 1940.34,981.669 1995.48,981.669C2050.62,981.669 2095.39,936.898 2095.39,881.754C2095.39,826.609 2050.62,781.838 1995.48,781.838Z"/>
        </g>
        <g transform="matrix(0.753929,-0.841859,0.845443,0.757138,-1226.58,1528.55)">
            <circle cx="1767.49" cy="405.308" r="15.097" style="fill:none;stroke:white;stroke-width:4.17px;"/>
        </g>
        <g transform="matrix(0.753929,-0.841859,0.845443,0.757138,-1413.85,1298.38)">
            <circle cx="1767.49" cy="405.308" r="15.097" style="fill:none;stroke:white;stroke-width:4.17px;"/>
        </g>
        <g transform="matrix(0.753929,-0.841859,0.845443,0.757138,-1370.76,1252.33)">
            <circle cx="1767.49" cy="405.308" r="15.097" style="fill:none;stroke:white;stroke-width:4.17px;"/>
        </g>
        <g transform="matrix(0.753929,-0.841859,0.845443,0.757138,-1294.27,1252.31)">
            <circle cx="1767.49" cy="405.308" r="15.097" style="fill:none;stroke:white;stroke-width:4.17px;"/>
        </g>
        <g transform="matrix(0.753929,-0.841859,0.845443,0.757138,-1173.97,1430.8)">
            <circle cx="1767.49" cy="405.308" r="15.097" style="fill:none;stroke:white;stroke-width:4.17px;"/>
        </g>
        <g transform="matrix(0.753929,-0.841859,0.845443,0.757138,-1465.42,1442.78)">
            <circle cx="1767.49" cy="405.308" r="15.097" style="fill:none;stroke:white;stroke-width:4.17px;"/>
        </g>
        <g transform="matrix(0.753929,-0.841859,0.845443,0.757138,-1386.27,1512.26)">
            <circle cx="1767.49" cy="405.308" r="15.097" style="fill:none;stroke:white;stroke-width:4.17px;"/>
        </g>
        <g transform="matrix(0.753929,-0.841859,0.845443,0.757138,-1311.92,1578.43)">
            <path d="M1767.49,390.21C1775.82,390.21 1782.58,396.975 1782.58,405.308C1782.58,413.64 1775.82,420.405 1767.49,420.405C1759.15,420.405 1755.31,410.48 1752.39,405.308C1752.39,396.975 1759.15,390.21 1767.49,390.21Z" style="fill:none;stroke:white;stroke-width:4.17px;"/>
        </g>
        <g transform="matrix(0.753929,-0.841859,0.845443,0.757138,-1318.93,1445.04)">
            <circle cx="1767.49" cy="405.308" r="15.097" style="fill:none;stroke:white;stroke-width:4.17px;"/>
        </g>
        <g transform="matrix(0.753929,-0.841859,0.845443,0.757138,-1392.97,1377.63)">
            <circle cx="1767.49" cy="405.308" r="15.097" style="fill:none;stroke:white;stroke-width:4.17px;"/>
        </g>
        <g transform="matrix(1.06345,-1.20829,1.53856,1.3965,-2284.86,1770.11)">
            <path d="M1796.04,544.273L1795.51,561.96" style="fill:none;stroke:white;stroke-width:4.17px;"/>
        </g>
        <g transform="matrix(1.07368,-1.19858,1.2649,1.13249,-2152.56,1921.64)">
            <path d="M1836.16,361.06L1836.65,560.507" style="fill:none;stroke:white;stroke-width:4.17px;"/>
        </g>
        <g transform="matrix(1.05471,-1.2153,1.20845,1.04836,-2103,1988.75)">
            <path d="M1879.88,362.638L1877.61,504.517" style="fill:none;stroke:white;stroke-width:4.17px;"/>
        </g>
        <g transform="matrix(1.07332,-1.19891,1.22022,1.09314,-2136.21,1938.21)">
            <path d="M1908.42,396.443L1906.92,555.743" style="fill:none;stroke:white;stroke-width:4.17px;"/>
        </g>
        <g transform="matrix(0.928813,-1.54128,1.31525,1.13298,-1919.86,2519.49)">
            <path d="M1755.58,378.445L1801.77,341.105" style="fill:none;stroke:white;stroke-width:4.17px;"/>
        </g>
        <g transform="matrix(0.940904,-1.32052,1.30548,0.954487,-1857.57,2269.54)">
            <path d="M1755.58,378.445L1801.77,341.105" style="fill:none;stroke:white;stroke-width:4.17px;"/>
        </g>
        <g transform="matrix(0.941766,-1.30478,1.30478,0.941766,-1784.2,2312.66)">
            <path d="M1755.58,378.445L1801.77,341.105" style="fill:none;stroke:white;stroke-width:4.17px;"/>
        </g>
        <g transform="matrix(2,0,0,2,-3601.57,-1554.92)">
            <path d="M1995.48,777.672C2052.92,777.672 2099.56,824.309 2099.56,881.754C2099.56,939.198 2052.92,985.836 1995.48,985.836C1938.04,985.836 1891.4,939.198 1891.4,881.754C1891.4,824.309 1938.04,777.672 1995.48,777.672ZM1995.48,781.838C1940.34,781.838 1895.57,826.609 1895.57,881.754C1895.57,936.898 1940.34,981.669 1995.48,981.669C2050.62,981.669 2095.39,936.898 2095.39,881.754C2095.39,826.609 2050.62,781.838 1995.48,781.838Z"/>
        </g>
        <g transform="matrix(8.27504,0,0,6.75855,-3984.04,-5439.74)">
            <path d="M551.161,813.013L544.973,856.04L537.046,856.04L541.831,822.66L538.593,822.66L513.795,856.04L503.983,856.04L535.983,813.013L551.161,813.013Z" style="fill-rule:nonzero;"/>
        </g>
        <g transform="matrix(8.27504,0,0,6.75855,-4003.66,-5452.47)">
            <path d="M551.161,813.013L544.973,856.04L537.046,856.04L541.831,822.66L538.593,822.66L513.795,856.04L503.983,856.04L535.983,813.013L551.161,813.013Z" style="fill:url(#_Linear2);fill-rule:nonzero;stroke:black;stroke-width:1.1px;stroke-linecap:butt;stroke-miterlimit:2;"/>
        </g>
    </g>
    <defs>
        <linearGradient id="_Linear1" x1="0" y1="0" x2="1" y2="0" gradientUnits="userSpaceOnUse" gradientTransform="matrix(137.039,-148.544,148.544,137.039,1929.77,965.289)"><stop offset="0" style="stop-color:rgb(22,88,3);stop-opacity:1"/><stop offset="1" style="stop-color:rgb(62,156,248);stop-opacity:1"/></linearGradient>
        <linearGradient id="_Linear2" x1="0" y1="0" x2="1" y2="0" gradientUnits="userSpaceOnUse" gradientTransform="matrix(19.297,-41.7173,34.0722,23.6269,527.832,859.123)"><stop offset="0" style="stop-color:rgb(255,241,0);stop-opacity:1"/><stop offset="1" style="stop-color:rgb(255,79,62);stop-opacity:1"/></linearGradient>
    </defs>
</svg>
