<?xml version="1.0" encoding="UTF-8" standalone="no"?>
<!DOCTYPE svg PUBLIC "-//W3C//DTD SVG 1.1//EN" "http://www.w3.org/Graphics/SVG/1.1/DTD/svg11.dtd">
<svg width="100%" height="100%" viewBox="0 0 389 261" version="1.1" xmlns="http://www.w3.org/2000/svg" xmlns:xlink="http://www.w3.org/1999/xlink" xml:space="preserve" xmlns:serif="http://www.serif.com/" style="fill-rule:evenodd;clip-rule:evenodd;stroke-linecap:round;stroke-linejoin:round;stroke-miterlimit:1.5;">
    <g transform="matrix(0.86132,0,0,0.406061,-409.903,-177.203)">
        <path d="M532.558,988.48L525.128,1078L515.608,1078L521.355,1008.55L517.465,1008.55L487.685,1078L475.901,1078L514.331,988.48L532.558,988.48Z" style="fill-rule:nonzero;"/>
        <path d="M535.635,1009.04C535.867,1006.25 536.341,1003.61 537.057,1001.1C537.773,998.598 538.644,996.402 539.67,994.514C540.695,992.626 541.847,991.148 543.124,990.081C544.401,989.014 545.717,988.48 547.071,988.48L578.709,988.48L577.025,1008.55L545.388,1008.55C545.271,1008.55 545.175,1008.72 545.097,1009.04L541.092,1057.43C541.092,1057.68 541.15,1057.81 541.266,1057.81L572.962,1057.81L571.278,1078L539.583,1078C538.228,1078 537.009,1077.46 535.925,1076.4C534.842,1075.33 533.942,1073.85 533.226,1071.96C532.51,1070.08 531.997,1067.9 531.688,1065.44C531.378,1062.98 531.339,1060.31 531.572,1057.43L535.635,1009.04Z" style="fill-rule:nonzero;"/>
        <path d="M581.205,1009.04C581.437,1006.25 581.911,1003.61 582.627,1001.1C583.343,998.598 584.214,996.402 585.239,994.514C586.265,992.626 587.416,991.148 588.693,990.081C589.97,989.014 591.286,988.48 592.641,988.48L624.278,988.48L622.595,1008.55L590.957,1008.55C590.841,1008.55 590.744,1008.72 590.667,1009.04L586.661,1057.43C586.661,1057.68 586.719,1057.81 586.836,1057.81L618.531,1057.81L616.848,1078L585.152,1078C583.798,1078 582.579,1077.46 581.495,1076.4C580.411,1075.33 579.512,1073.85 578.796,1071.96C578.08,1070.08 577.567,1067.9 577.257,1065.44C576.948,1062.98 576.909,1060.31 577.141,1057.43L581.205,1009.04Z" style="fill-rule:nonzero;"/>
        <path d="M665.784,1008.55L636.643,1008.55L635.482,1022.96L658.47,1022.96L656.786,1043.15L633.798,1043.15L632.579,1057.81L663.056,1057.81L661.43,1078L621.376,1078L628.806,988.48L667.468,988.48L665.784,1008.55Z" style="fill-rule:nonzero;"/>
        <path d="M672.576,988.48L682.096,988.357L676.291,1057.81L706.826,1057.81L705.142,1078L665.146,1078L672.576,988.48Z" style="fill-rule:nonzero;"/>
        <path d="M753.556,1008.55L724.415,1008.55L723.254,1022.96L746.242,1022.96L744.559,1043.15L721.571,1043.15L720.352,1057.81L750.828,1057.81L749.203,1078L709.148,1078L716.578,988.48L755.24,988.48L753.556,1008.55Z" style="fill-rule:nonzero;"/>
        <path d="M784.439,1050.79L796.63,1078L783.336,1078L771.262,1050.79L764.702,1050.79L762.438,1078L752.918,1078L760.348,988.48L791.695,988.48C793.011,988.48 794.221,989.014 795.324,990.081C796.427,991.148 797.336,992.626 798.052,994.514C798.768,996.402 799.281,998.598 799.59,1001.1C799.9,1003.61 799.939,1006.25 799.706,1009.04L797.907,1030.1C797.675,1032.97 797.201,1035.66 796.485,1038.16C795.769,1040.67 794.898,1042.86 793.872,1044.75C792.847,1046.64 791.695,1048.12 790.418,1049.18C789.141,1050.25 787.825,1050.79 786.471,1050.79L784.439,1050.79ZM766.327,1030.59L788.154,1030.59C788.27,1030.59 788.367,1030.43 788.445,1030.1L790.186,1009.04C790.186,1008.8 790.128,1008.67 790.012,1008.67L768.185,1008.67L766.327,1030.59Z" style="fill-rule:nonzero;"/>
    </g>
    <g transform="matrix(0.162454,0,0,0.406061,246.232,-177.203)">
        <path d="M531.056,1078L480.58,1078L511.358,1008.67L428.566,1008.67L437.183,988.48L653.245,988.48L644.319,1008.67L561.526,1008.67L531.056,1078Z" style="fill-rule:nonzero;"/>
        <path d="M867.152,1008.55L712.646,1008.55L706.491,1022.96L828.372,1022.96L819.446,1043.15L697.565,1043.15L691.102,1057.81L852.686,1057.81L844.068,1078L631.7,1078L671.096,988.48L876.077,988.48L867.152,1008.55Z" style="fill-rule:nonzero;"/>
    </g>
    <g transform="matrix(1,0,0,1,-1790.21,-1288.05)">
        <g transform="matrix(1.16977,0,0,1.61758,-356.259,-939.68)">
            <rect x="2083.4" y="1526.41" width="15.091" height="5.043"/>
        </g>
        <g transform="matrix(-0.86132,0,0,-0.406061,2640.15,1950.02)">
            <path d="M642.593,1078L626.513,1078L620.069,988.48L630.112,988.48L635.046,1057.93L637.368,1057.93L653.797,988.48L663.839,988.48L642.593,1078Z"/>
        </g>
    </g>
    <g transform="matrix(1,0,0,1,-1800.79,-777.672)">
        <circle cx="1995.48" cy="881.754" r="99.915" style="fill:url(#_Linear1);"/>
        <path d="M1995.48,777.672C2052.92,777.672 2099.56,824.309 2099.56,881.754C2099.56,939.198 2052.92,985.836 1995.48,985.836C1938.04,985.836 1891.4,939.198 1891.4,881.754C1891.4,824.309 1938.04,777.672 1995.48,777.672ZM1995.48,781.838C1940.34,781.838 1895.57,826.609 1895.57,881.754C1895.57,936.898 1940.34,981.669 1995.48,981.669C2050.62,981.669 2095.39,936.898 2095.39,881.754C2095.39,826.609 2050.62,781.838 1995.48,781.838Z"/>
    </g>
    <g transform="matrix(0.376964,-0.42093,0.422721,0.378569,-613.29,764.067)">
        <circle cx="1767.49" cy="405.308" r="15.097" style="fill:none;stroke:white;stroke-width:4.17px;"/>
    </g>
    <g transform="matrix(0.376964,-0.42093,0.422721,0.378569,-706.924,648.978)">
        <circle cx="1767.49" cy="405.308" r="15.097" style="fill:none;stroke:white;stroke-width:4.17px;"/>
    </g>
    <g transform="matrix(0.376964,-0.42093,0.422721,0.378569,-685.382,625.956)">
        <circle cx="1767.49" cy="405.308" r="15.097" style="fill:none;stroke:white;stroke-width:4.17px;"/>
    </g>
    <g transform="matrix(0.376964,-0.42093,0.422721,0.378569,-647.137,625.943)">
        <circle cx="1767.49" cy="405.308" r="15.097" style="fill:none;stroke:white;stroke-width:4.17px;"/>
    </g>
    <g transform="matrix(0.376964,-0.42093,0.422721,0.378569,-586.985,715.189)">
        <circle cx="1767.49" cy="405.308" r="15.097" style="fill:none;stroke:white;stroke-width:4.17px;"/>
    </g>
    <g transform="matrix(0.376964,-0.42093,0.422721,0.378569,-732.71,721.178)">
        <circle cx="1767.49" cy="405.308" r="15.097" style="fill:none;stroke:white;stroke-width:4.17px;"/>
    </g>
    <g transform="matrix(0.376964,-0.42093,0.422721,0.378569,-693.134,755.921)">
        <circle cx="1767.49" cy="405.308" r="15.097" style="fill:none;stroke:white;stroke-width:4.17px;"/>
    </g>
    <g transform="matrix(0.376964,-0.42093,0.422721,0.378569,-655.958,789.005)">
        <path d="M1767.49,390.21C1775.82,390.21 1782.58,396.975 1782.58,405.308C1782.58,413.64 1775.82,420.405 1767.49,420.405C1759.15,420.405 1755.31,410.48 1752.39,405.308C1752.39,396.975 1759.15,390.21 1767.49,390.21Z" style="fill:none;stroke:white;stroke-width:4.17px;"/>
    </g>
    <g transform="matrix(0.376964,-0.42093,0.422721,0.378569,-659.464,722.308)">
        <circle cx="1767.49" cy="405.308" r="15.097" style="fill:none;stroke:white;stroke-width:4.17px;"/>
    </g>
    <g transform="matrix(0.376964,-0.42093,0.422721,0.378569,-696.484,688.606)">
        <circle cx="1767.49" cy="405.308" r="15.097" style="fill:none;stroke:white;stroke-width:4.17px;"/>
    </g>
    <g transform="matrix(0.531726,-0.604145,0.76928,0.698248,-1142.43,884.844)">
        <path d="M1796.04,544.273L1795.51,561.96" style="fill:none;stroke:white;stroke-width:4.17px;"/>
    </g>
    <g transform="matrix(0.53684,-0.599289,0.632448,0.566244,-1076.28,960.609)">
        <path d="M1836.16,361.06L1836.65,560.507" style="fill:none;stroke:white;stroke-width:4.17px;"/>
    </g>
    <g transform="matrix(0.527354,-0.607652,0.604224,0.524182,-1051.5,994.166)">
        <path d="M1879.88,362.638L1877.61,504.517" style="fill:none;stroke:white;stroke-width:4.17px;"/>
    </g>
    <g transform="matrix(0.536658,-0.599454,0.610111,0.54657,-1068.1,968.898)">
        <path d="M1908.42,396.443L1906.92,555.743" style="fill:none;stroke:white;stroke-width:4.17px;"/>
    </g>
    <g transform="matrix(0.464406,-0.77064,0.657627,0.566489,-959.929,1259.54)">
        <path d="M1755.58,378.445L1801.77,341.105" style="fill:none;stroke:white;stroke-width:4.17px;"/>
    </g>
    <g transform="matrix(0.470452,-0.660258,0.652739,0.477243,-928.784,1134.56)">
        <path d="M1755.58,378.445L1801.77,341.105" style="fill:none;stroke:white;stroke-width:4.17px;"/>
    </g>
    <g transform="matrix(0.470883,-0.652391,0.652391,0.470883,-892.098,1156.12)">
        <path d="M1755.58,378.445L1801.77,341.105" style="fill:none;stroke:white;stroke-width:4.17px;"/>
    </g>
    <g transform="matrix(1,0,0,1,-1800.79,-777.672)">
        <path d="M1995.48,777.672C2052.92,777.672 2099.56,824.309 2099.56,881.754C2099.56,939.198 2052.92,985.836 1995.48,985.836C1938.04,985.836 1891.4,939.198 1891.4,881.754C1891.4,824.309 1938.04,777.672 1995.48,777.672ZM1995.48,781.838C1940.34,781.838 1895.57,826.609 1895.57,881.754C1895.57,936.898 1940.34,981.669 1995.48,981.669C2050.62,981.669 2095.39,936.898 2095.39,881.754C2095.39,826.609 2050.62,781.838 1995.48,781.838Z"/>
    </g>
    <g transform="matrix(4.13752,0,0,3.37928,-1992.02,-2720.08)">
        <path d="M551.161,813.013L544.973,856.04L537.046,856.04L541.831,822.66L538.593,822.66L513.795,856.04L503.983,856.04L535.983,813.013L551.161,813.013Z" style="fill-rule:nonzero;"/>
    </g>
    <g transform="matrix(4.13752,0,0,3.37928,-2001.83,-2726.44)">
        <path d="M551.161,813.013L544.973,856.04L537.046,856.04L541.831,822.66L538.593,822.66L513.795,856.04L503.983,856.04L535.983,813.013L551.161,813.013Z" style="fill:url(#_Linear2);fill-rule:nonzero;stroke:black;stroke-width:1.1px;stroke-linecap:butt;stroke-miterlimit:2;"/>
    </g>
    <defs>
        <linearGradient id="_Linear1" x1="0" y1="0" x2="1" y2="0" gradientUnits="userSpaceOnUse" gradientTransform="matrix(137.039,-148.544,148.544,137.039,1929.77,965.289)"><stop offset="0" style="stop-color:rgb(22,88,3);stop-opacity:1"/><stop offset="1" style="stop-color:rgb(62,156,248);stop-opacity:1"/></linearGradient>
        <linearGradient id="_Linear2" x1="0" y1="0" x2="1" y2="0" gradientUnits="userSpaceOnUse" gradientTransform="matrix(19.297,-41.7173,34.0722,23.6269,527.832,859.123)"><stop offset="0" style="stop-color:rgb(255,241,0);stop-opacity:1"/><stop offset="1" style="stop-color:rgb(255,79,62);stop-opacity:1"/></linearGradient>
    </defs>
</svg>
